# xmcd CD database file
#
# Track frame offsets:
#	150
#	23100
#	40042
#	60685
#	75267
#	92597
#	119530
#	139930
#	157297
#	176045
#	202090
#	224387
#	243195
#	263505
#
# Disc length: 3739 seconds
#
# Revision: 1
# Processed by: cddbd v1.5.2PL0 Copyright (c) Steve Scherf et al.
# Submitted via: CDex 1.70beta2
#
DISCID=c00e990e
DTITLE=オフコース - Off Course Summer Collection
DYEAR=1993
DGENRE=New Music
TTITLE0=I LOVE YOU
TTITLE1=潮の香り
TTITLE2=きかせて
TTITLE3=雨よ激しく
TTITLE4=YES-YES-YES
TTITLE5=哀しき街
TTITLE6=せつなくて
TTITLE7=汐風のなかで
TTITLE8=海を見つめて
TTITLE9=時に愛は
TTITLE10=生まれ来る子供たちのために
TTITLE11=風に吹かれて
TTITLE12=一億の夜を越えて
TTITLE13=夏の終り
EXTD=YEAR: 1993
EXTT0=
EXTT1=
EXTT2=
EXTT3=
EXTT4=
EXTT5=
EXTT6=
EXTT7=
EXTT8=
EXTT9=
EXTT10=
EXTT11=
EXTT12=
EXTT13=
PLAYORDER=
